<svg viewBox="0 0 64 65" fill="none" xmlns="http://www.w3.org/2000/svg">
<path d="M49.7559 22C57.4878 22 63.7559 28.268 63.7559 36V50.7559C63.7559 58.4878 57.4878 64.7559 49.7559 64.7559H35C27.268 64.7559 21 58.4878 21 50.7559V36C21 28.268 27.268 22 35 22H49.7559ZM35 29C31.134 29 28 32.134 28 36V50.7598C28 54.6258 31.134 57.7598 35 57.7598H49.7598C53.6258 57.7598 56.7598 54.6258 56.7598 50.7598V36C56.7598 32.134 53.6258 29 49.7598 29H35Z" fill="currentColor"/>
<path d="M28.7559 0C36.4878 0 42.7559 6.26801 42.7559 14V28.7559C42.7559 36.4878 36.4878 42.7559 28.7559 42.7559H14C6.26801 42.7559 0 36.4878 0 28.7559V14C0 6.26801 6.26801 0 14 0H28.7559ZM14 7C10.134 7 7 10.134 7 14V28.7598C7 32.6258 10.134 35.7598 14 35.7598H28.7598C32.6258 35.7598 35.7598 32.6258 35.7598 28.7598V14C35.7598 10.134 32.6258 7 28.7598 7H14Z" fill="currentColor"/>
</svg>
