<svg viewBox="0 0 64 64" fill="none" xmlns="http://www.w3.org/2000/svg">
<path d="M50 21.2441C57.732 21.2441 64 27.5122 64 35.2441V50C64 57.732 57.732 64 50 64H35.2441C27.5122 64 21.2441 57.732 21.2441 50V42.7559H28.7559C36.4878 42.7559 42.7559 36.4878 42.7559 28.7559V21.2441H50ZM28.7559 0C36.4878 0 42.7559 6.26801 42.7559 14V21.2441H35.2441C27.5122 21.2441 21.2441 27.5122 21.2441 35.2441V42.7559H14C6.26801 42.7559 0 36.4878 0 28.7559V14C0 6.26801 6.26801 0 14 0H28.7559Z" fill="currentColor"/>
</svg>
